<?xml version="1.0" standalone="no"?>
<!DOCTYPE svg PUBLIC "-//W3C//DTD SVG 20010904//EN"
 "http://www.w3.org/TR/2001/REC-SVG-20010904/DTD/svg10.dtd">
<svg version="1.0" xmlns="http://www.w3.org/2000/svg"
 width="2000.000000pt" height="655.000000pt" viewBox="0 0 2000.000000 655.000000"
 preserveAspectRatio="xMidYMid meet">

<g transform="translate(0.000000,655.000000) scale(0.100000,-0.100000)"
fill="#000000" stroke="none">
<path d="M5042 4520 c-172 -12 -353 -40 -393 -60 -38 -20 -71 -48 -279 -239
-142 -130 -221 -189 -295 -221 -68 -29 -472 -82 -1300 -170 -209 -22 -451 -50
-537 -62 l-157 -22 -19 -61 c-28 -84 -45 -243 -41 -384 6 -187 20 -198 359
-266 124 -25 235 -48 246 -51 16 -4 23 -16 28 -43 14 -87 99 -228 173 -287 80
-65 189 -104 287 -104 49 0 133 23 191 52 46 24 147 118 175 163 16 26 25 31
49 27 16 -2 39 1 51 8 19 10 26 8 51 -18 20 -21 42 -31 75 -36 74 -10 476 -7
534 4 29 6 55 8 57 6 3 -2 11 -35 19 -73 54 -260 292 -447 517 -405 72 14 174
61 223 105 59 51 125 153 152 235 21 63 25 96 25 182 0 131 -29 228 -96 323
-72 100 -104 124 -267 196 -20 9 -11 10 45 6 153 -13 281 -108 320 -239 9 -28
22 -116 31 -196 8 -79 16 -145 17 -146 1 -1 261 34 577 77 566 77 932 122
1100 135 l85 6 25 -51 c28 -61 116 -148 181 -179 172 -83 391 -19 490 141 99
160 80 351 -48 488 -50 53 -94 80 -178 109 l-50 17 34 18 c44 22 96 16 156
-20 60 -35 95 -85 139 -199 21 -52 43 -99 50 -105 10 -8 46 2 141 40 164 64
279 123 331 171 23 21 47 38 55 38 17 0 51 49 77 110 16 37 19 67 18 162 -2
149 -9 159 -124 176 -43 7 -190 40 -327 73 -207 50 -268 68 -354 109 -120 58
-296 153 -462 252 -131 76 -201 109 -272 127 -50 12 -315 42 -597 67 -194 17
-1113 27 -1288 14z m398 -109 c177 -10 431 -31 438 -36 1 -1 -51 -114 -117
-251 -102 -215 -122 -249 -142 -252 -13 -1 -276 22 -584 52 -308 30 -618 60
-690 67 -71 7 -136 15 -142 18 -14 7 21 37 312 273 99 79 186 147 192 149 19
6 508 -7 733 -20z m1237 -66 c11 -8 130 -74 264 -146 134 -72 252 -138 262
-147 21 -18 19 -51 -3 -63 -14 -7 -378 -67 -536 -89 -128 -17 -555 -40 -756
-40 l-197 0 86 178 c47 97 100 210 119 250 l33 72 353 0 c296 0 357 -2 375
-15z m936 -999 c142 -59 174 -342 52 -463 -37 -38 -48 -43 -86 -43 -59 0 -98
26 -131 86 -40 74 -52 157 -34 242 22 108 59 163 122 182 40 12 41 12 77 -4z
m-2623 -285 c35 -21 52 -41 80 -95 34 -66 35 -73 35 -175 -1 -113 -11 -149
-62 -224 -43 -62 -121 -94 -187 -76 -55 15 -118 82 -145 153 -16 42 -21 80
-21 146 0 114 25 185 86 246 69 69 129 77 214 25z"/>
<path d="M10720 4392 c-49 -50 -40 -126 20 -157 49 -25 88 -19 126 19 68 68
34 154 -64 164 -47 4 -54 2 -82 -26z"/>
<path d="M14187 4350 c-279 -50 -493 -232 -580 -491 -9 -26 -21 -86 -28 -135
-37 -282 70 -544 288 -700 138 -100 269 -139 463 -138 151 0 216 13 335 70 76
36 185 118 185 139 0 7 -21 32 -46 55 l-46 42 -31 -30 c-86 -81 -216 -132
-357 -139 -290 -15 -534 147 -621 412 -19 57 -24 92 -24 185 0 133 22 214 83
314 185 306 636 381 901 149 l53 -46 46 47 47 47 -62 59 c-67 64 -170 120
-268 146 -70 18 -268 27 -338 14z"/>
<path d="M9075 4338 c-3 -7 -4 -335 -3 -728 l3 -715 73 -3 72 -3 0 581 c0 342
4 580 9 580 5 0 216 -261 468 -580 l458 -581 60 3 60 3 0 725 0 725 -70 0 -70
0 -3 -582 c-1 -321 -5 -583 -10 -582 -4 0 -191 234 -417 520 -225 287 -434
550 -463 585 l-52 64 -56 0 c-34 0 -56 -5 -59 -12z"/>
<path d="M10720 3435 l0 -546 73 3 72 3 0 540 0 540 -72 3 -73 3 0 -546z"/>
<path d="M11570 3964 c-188 -49 -328 -186 -384 -373 -20 -69 -21 -236 -1 -311
23 -87 73 -175 136 -238 163 -165 438 -209 657 -105 61 29 162 119 162 146 0
13 -77 77 -93 77 -2 0 -24 -20 -50 -45 -84 -80 -177 -111 -308 -102 -167 11
-296 108 -349 262 -92 268 59 538 321 575 128 18 250 -21 336 -109 l51 -53 46
31 c25 18 46 38 46 45 0 33 -99 129 -171 166 -95 49 -283 65 -399 34z"/>
<path d="M12691 3964 c-83 -22 -150 -62 -222 -134 -166 -165 -207 -437 -98
-659 40 -80 134 -176 216 -219 218 -115 506 -88 670 63 l44 40 -42 48 -41 48
-39 -35 c-162 -147 -449 -141 -606 13 -53 52 -100 144 -109 214 l-7 47 454 2
454 3 -2 79 c-6 232 -152 424 -372 490 -68 20 -225 20 -300 0z m212 -114 c161
-23 287 -141 316 -292 l8 -48 -385 0 -385 0 7 43 c22 143 160 275 308 297 29
4 55 8 58 9 3 0 36 -4 73 -9z"/>
<path d="M15331 3960 c-129 -35 -259 -106 -247 -135 3 -8 16 -32 31 -54 l25
-41 53 35 c78 53 193 86 302 88 202 1 300 -80 312 -262 l6 -78 -234 -6 c-243
-5 -307 -15 -385 -55 -45 -23 -94 -74 -121 -125 -22 -42 -29 -172 -13 -223 49
-149 212 -235 419 -221 136 9 229 48 299 126 34 38 34 38 33 -44 -2 -70 5 -77
78 -73 l62 3 -1 393 c0 358 -2 399 -19 447 -38 109 -102 174 -212 217 -80 32
-285 36 -388 8z m479 -663 c0 -85 -2 -97 -28 -138 -67 -104 -152 -151 -289
-157 -143 -7 -223 22 -274 97 -19 28 -24 47 -24 101 0 58 4 72 28 103 57 74
102 85 375 86 l212 1 0 -93z"/>
<path d="M16360 3976 c-3 -2 -4 -248 -2 -546 l2 -541 68 3 67 3 6 330 c6 344
10 375 54 450 58 99 152 155 273 163 l72 5 0 70 0 70 -67 -5 c-128 -10 -235
-68 -300 -162 -18 -26 -33 -42 -34 -35 0 8 -1 55 -2 104 l-2 90 -65 3 c-36 2
-68 1 -70 -2z"/>
<path d="M17327 3964 c-161 -39 -261 -149 -261 -289 0 -85 25 -146 81 -194 59
-53 119 -74 310 -111 192 -38 272 -71 298 -126 45 -94 -23 -197 -146 -223
-134 -29 -311 -3 -447 65 -40 20 -74 35 -76 33 -2 -2 -15 -25 -31 -52 -33 -57
-29 -65 59 -106 186 -89 428 -105 602 -40 72 27 157 105 181 167 26 68 23 156
-8 218 -47 95 -133 135 -409 189 -207 41 -277 91 -267 194 5 49 29 86 77 119
48 32 103 44 205 45 102 0 181 -19 264 -64 30 -16 55 -28 56 -26 19 25 55 98
55 111 0 22 -86 61 -194 86 -97 24 -262 25 -349 4z"/>
</g>
</svg>
